# This file uses centimeters as units for non-parametric coordinates.

mtllib Bullet.mtl
g default
v 1.341131 0.000000 -0.544694
v 1.141114 0.000000 -0.937249
v 0.829581 0.000000 -1.248782
v 0.437026 0.000000 -1.448799
v 0.001876 0.000000 -1.517720
v -0.433275 0.000000 -1.448798
v -0.825829 0.000000 -1.248782
v -1.137362 0.000000 -0.937249
v -1.337379 0.000000 -0.544694
v -1.406300 0.000000 -0.109544
v -1.337379 0.000000 0.325606
v -1.137362 0.000000 0.718161
v -0.825829 0.000000 1.029694
v -0.433275 0.000000 1.229711
v 0.001876 0.000000 1.298632
v 0.437026 0.000000 1.229711
v 0.829580 0.000000 1.029694
v 1.141113 0.000000 0.718161
v 1.341130 0.000000 0.325606
v 1.410051 0.000000 -0.109544
v 0.001876 4.620397 -0.109544
v 0.001876 0.000000 -0.109544
v 0.234754 4.185965 -0.826270
v 0.444836 4.185965 -0.719227
v 0.611559 4.185965 -0.552505
v 0.718601 4.185965 -0.342422
v 0.755485 4.185965 -0.109544
v 0.718601 4.185965 0.123334
v 0.611558 4.185965 0.333417
v 0.444836 4.185965 0.500139
v 0.234754 4.185965 0.607182
v 0.001875 4.185965 0.644066
v -0.231003 4.185965 0.607182
v -0.441085 4.185965 0.500139
v -0.607808 4.185965 0.333417
v -0.714850 4.185965 0.123334
v -0.751734 4.185965 -0.109544
v -0.714850 4.185965 -0.342422
v -0.607808 4.185965 -0.552505
v -0.441085 4.185965 -0.719227
v -0.231003 4.185965 -0.826270
v 0.001875 4.185965 -0.863154
v 0.380303 3.336482 -1.274224
v 0.721688 3.336482 -1.100280
v 0.992612 3.336482 -0.829356
v 1.166556 3.336482 -0.487971
v 1.226492 3.336482 -0.109544
v 1.166555 3.336482 0.268884
v 0.992611 3.336482 0.610268
v 0.721687 3.336482 0.881192
v 0.380303 3.336482 1.055136
v 0.001876 3.336482 1.115073
v -0.376552 3.336482 1.055136
v -0.717936 3.336482 0.881192
v -0.988860 3.336482 0.610268
v -1.162805 3.336482 0.268884
v -1.222741 3.336482 -0.109544
v -1.162805 3.336482 -0.487971
v -0.988861 3.336482 -0.829356
v -0.717936 3.336482 -1.100280
v -0.376552 3.336482 -1.274224
v 0.001876 3.336482 -1.334161
v 0.437026 2.546774 -1.448799
v 0.829581 2.546774 -1.248782
v 1.141114 2.546774 -0.937249
v 1.341131 2.546774 -0.544694
v 1.410051 2.546774 -0.109544
v 1.341130 2.546774 0.325606
v 1.141113 2.546774 0.718161
v 0.829580 2.546774 1.029694
v 0.437026 2.546774 1.229711
v 0.001876 2.546774 1.298632
v -0.433275 2.546774 1.229711
v -0.825829 2.546774 1.029694
v -1.137362 2.546774 0.718161
v -1.337379 2.546774 0.325606
v -1.406300 2.546774 -0.109544
v -1.337379 2.546774 -0.544694
v -1.137362 2.546774 -0.937249
v -0.825829 2.546774 -1.248782
v -0.433275 2.546774 -1.448799
v 0.001876 2.546774 -1.517720
v 0.437026 1.540132 -1.448799
v 0.829581 1.540132 -1.248782
v 1.141114 1.540132 -0.937249
v 1.341131 1.540132 -0.544694
v 1.410051 1.540132 -0.109544
v 1.341130 1.540132 0.325606
v 1.141113 1.540132 0.718161
v 0.829580 1.540132 1.029694
v 0.437026 1.540132 1.229711
v 0.001876 1.540132 1.298632
v -0.433275 1.540132 1.229711
v -0.825829 1.540132 1.029694
v -1.137362 1.540132 0.718161
v -1.337379 1.540132 0.325606
v -1.406300 1.540132 -0.109544
v -1.337379 1.540132 -0.544694
v -1.137362 1.540132 -0.937249
v -0.825829 1.540132 -1.248782
v -0.433275 1.540132 -1.448799
v 0.001876 1.540132 -1.517720
v 0.437026 0.770066 -1.448799
v 0.829581 0.770066 -1.248782
v 1.141114 0.770066 -0.937249
v 1.341131 0.770066 -0.544694
v 1.410051 0.770066 -0.109544
v 1.341130 0.770066 0.325606
v 1.141113 0.770066 0.718161
v 0.829580 0.770066 1.029694
v 0.437026 0.770066 1.229711
v 0.001876 0.770066 1.298632
v -0.433275 0.770066 1.229711
v -0.825829 0.770066 1.029694
v -1.137362 0.770066 0.718161
v -1.337379 0.770066 0.325606
v -1.406300 0.770066 -0.109544
v -1.337379 0.770066 -0.544694
v -1.137362 0.770066 -0.937249
v -0.825829 0.770066 -1.248782
v -0.433275 0.770066 -1.448799
v 0.001876 0.770066 -1.517720
vt 0.648603 0.107966
vt 0.626409 0.064408
vt 0.591842 0.029841
vt 0.548284 0.007647
vt 0.500000 -0.000000
vt 0.451716 0.007647
vt 0.408159 0.029841
vt 0.373591 0.064409
vt 0.351397 0.107966
vt 0.343750 0.156250
vt 0.351397 0.204534
vt 0.373591 0.248091
vt 0.408159 0.282659
vt 0.451716 0.304853
vt 0.500000 0.312500
vt 0.548284 0.304853
vt 0.591841 0.282659
vt 0.626409 0.248091
vt 0.648603 0.204534
vt 0.656250 0.156250
vt 0.259712 0.316013
vt 0.283741 0.316013
vt 0.307769 0.316013
vt 0.331798 0.316013
vt 0.355827 0.316013
vt 0.379856 0.316013
vt 0.403885 0.316013
vt 0.427913 0.316013
vt 0.451942 0.316013
vt 0.475971 0.316013
vt 0.500000 0.312500
vt 0.524029 0.316013
vt 0.548057 0.316013
vt 0.572086 0.316013
vt 0.596115 0.316013
vt 0.620144 0.316013
vt 0.644173 0.316013
vt 0.668202 0.316013
vt 0.692230 0.316013
vt 0.716259 0.316013
vt 0.740288 0.316013
vt 0.499947 0.995417
vt 0.500000 0.150000
vt 0.369256 0.924189
vt 0.354378 0.937231
vt 0.335931 0.950979
vt 0.683010 0.969160
vt 0.316223 0.969425
vt 0.663396 0.950849
vt 0.645945 0.937077
vt 0.631718 0.924434
vt 0.615561 0.913904
vt 0.599477 0.907350
vt 0.579871 0.902092
vt 0.561270 0.899874
vt 0.541982 0.898561
vt 0.521328 0.897697
vt 0.500041 0.897423
vt 0.478753 0.897762
vt 0.458097 0.898687
vt 0.438754 0.900079
vt 0.420498 0.902120
vt 0.401241 0.906950
vt 0.384747 0.914019
vt 0.331798 0.797794
vt 0.307769 0.797794
vt 0.283741 0.797794
vt 0.740288 0.797794
vt 0.259712 0.797794
vt 0.716259 0.797794
vt 0.692230 0.797794
vt 0.668202 0.797794
vt 0.644173 0.797794
vt 0.620144 0.797794
vt 0.596115 0.797794
vt 0.572086 0.797794
vt 0.548057 0.797794
vt 0.524029 0.797794
vt 0.500000 0.797794
vt 0.475971 0.797794
vt 0.451942 0.797794
vt 0.427913 0.797794
vt 0.403885 0.797794
vt 0.379856 0.797794
vt 0.355827 0.797794
vt 0.331798 0.677349
vt 0.307769 0.677349
vt 0.283741 0.677349
vt 0.740288 0.677349
vt 0.259712 0.677349
vt 0.716259 0.677349
vt 0.692230 0.677349
vt 0.668202 0.677349
vt 0.644173 0.677349
vt 0.620144 0.677349
vt 0.596115 0.677349
vt 0.572086 0.677349
vt 0.548057 0.677349
vt 0.524029 0.677349
vt 0.500000 0.677349
vt 0.475971 0.677349
vt 0.451942 0.677349
vt 0.427913 0.677349
vt 0.403885 0.677349
vt 0.379856 0.677349
vt 0.355827 0.677349
vt 0.331798 0.556904
vt 0.307769 0.556904
vt 0.283741 0.556904
vt 0.740288 0.556904
vt 0.259712 0.556904
vt 0.716259 0.556904
vt 0.692230 0.556904
vt 0.668202 0.556904
vt 0.644173 0.556904
vt 0.620144 0.556904
vt 0.596115 0.556904
vt 0.572086 0.556904
vt 0.548057 0.556904
vt 0.524029 0.556904
vt 0.500000 0.556904
vt 0.475971 0.556904
vt 0.451942 0.556904
vt 0.427913 0.556904
vt 0.403885 0.556904
vt 0.379856 0.556904
vt 0.355827 0.556904
vt 0.331798 0.436458
vt 0.307769 0.436458
vt 0.283741 0.436458
vt 0.740288 0.436458
vt 0.259712 0.436458
vt 0.716259 0.436458
vt 0.692230 0.436458
vt 0.668202 0.436458
vt 0.644173 0.436458
vt 0.620144 0.436458
vt 0.596115 0.436458
vt 0.572086 0.436458
vt 0.548057 0.436458
vt 0.524029 0.436458
vt 0.500000 0.436458
vt 0.475971 0.436458
vt 0.451942 0.436458
vt 0.427913 0.436458
vt 0.403885 0.436458
vt 0.379856 0.436458
vt 0.355827 0.436458
vn 0.951057 0.000000 -0.309016
vn 0.809017 0.000000 -0.587785
vn 0.951057 0.000000 -0.309016
vn 0.809017 0.000000 -0.587785
vn 0.587785 0.000000 -0.809017
vn 0.587785 0.000000 -0.809017
vn 0.309017 0.000000 -0.951057
vn 0.309017 0.000000 -0.951057
vn 0.000000 0.000000 -1.000000
vn 0.000000 -0.000000 -1.000000
vn -0.309017 -0.000000 -0.951056
vn -0.309017 -0.000000 -0.951057
vn -0.587786 -0.000000 -0.809017
vn -0.587785 0.000000 -0.809017
vn -0.809017 0.000000 -0.587785
vn -0.809017 0.000000 -0.587785
vn -0.951057 0.000000 -0.309017
vn -0.951057 0.000000 -0.309017
vn -1.000000 0.000000 0.000000
vn -1.000000 0.000000 0.000000
vn -0.951057 0.000000 0.309017
vn -0.951057 0.000000 0.309017
vn -0.809017 0.000000 0.587785
vn -0.809017 0.000000 0.587785
vn -0.587785 0.000000 0.809017
vn -0.587785 0.000000 0.809017
vn -0.309017 0.000000 0.951057
vn -0.309017 0.000000 0.951057
vn 0.000000 0.000000 1.000000
vn 0.000000 -0.000000 1.000000
vn 0.309017 -0.000000 0.951056
vn 0.309017 -0.000000 0.951056
vn 0.587785 0.000000 0.809017
vn 0.587785 0.000000 0.809017
vn 0.809017 0.000000 0.587785
vn 0.809017 0.000000 0.587785
vn 0.951057 -0.000000 0.309017
vn 0.951057 -0.000000 0.309017
vn 1.000000 -0.000000 0.000001
vn 1.000000 0.000000 0.000001
vn 0.000000 -1.000000 0.000000
vn 0.000000 -1.000000 0.000000
vn 0.000000 -1.000000 0.000000
vn 0.000000 -1.000000 0.000000
vn 0.000000 -1.000000 0.000000
vn 0.000000 -1.000000 0.000000
vn 0.000000 -1.000000 0.000000
vn 0.000000 -1.000000 0.000000
vn 0.000000 -1.000000 0.000000
vn 0.000000 -1.000000 0.000000
vn 0.000000 -1.000000 0.000000
vn 0.000000 -1.000000 0.000000
vn 0.000000 -1.000000 0.000000
vn 0.000000 -1.000000 0.000000
vn 0.000000 -1.000000 0.000000
vn 0.000000 -1.000000 0.000000
vn 0.000000 -1.000000 0.000000
vn 0.000000 -1.000000 0.000000
vn 0.000000 -1.000000 0.000000
vn 0.000000 -1.000000 -0.000000
vn 0.000000 -1.000000 0.000000
vn 0.432143 0.669266 -0.604430
vn 0.224213 0.669266 -0.708387
vn -0.000000 1.000000 -0.000000
vn 0.597772 0.669266 -0.441308
vn 0.704886 0.669266 -0.234986
vn 0.743001 0.669266 -0.005664
vn 0.708387 0.669266 0.224213
vn 0.604430 0.669266 0.432143
vn 0.441308 0.669266 0.597771
vn 0.234987 0.669266 0.704886
vn 0.005664 0.669266 0.743001
vn -0.224213 0.669266 0.708387
vn -0.432143 0.669266 0.604430
vn -0.597771 0.669266 0.441308
vn -0.704886 0.669266 0.234987
vn -0.743001 0.669266 0.005664
vn -0.708387 0.669266 -0.224213
vn -0.604430 0.669266 -0.432143
vn -0.441308 0.669266 -0.597771
vn -0.234987 0.669266 -0.704886
vn -0.005664 0.669266 -0.743001
vn 0.544543 0.362704 -0.756253
vn 0.284196 0.362704 -0.887513
vn 0.751586 0.362704 -0.550966
vn 0.885059 0.362704 -0.291746
vn 0.931896 0.362704 -0.003969
vn 0.887512 0.362704 0.284196
vn 0.756253 0.362704 0.544543
vn 0.550966 0.362704 0.751586
vn 0.291747 0.362704 0.885059
vn 0.003970 0.362704 0.931896
vn -0.284196 0.362704 0.887513
vn -0.544543 0.362704 0.756253
vn -0.751586 0.362704 0.550966
vn -0.885059 0.362704 0.291747
vn -0.931896 0.362704 0.003970
vn -0.887513 0.362704 -0.284196
vn -0.756253 0.362704 -0.544543
vn -0.550967 0.362704 -0.751586
vn -0.291747 0.362704 -0.885059
vn -0.003970 0.362704 -0.931896
vn 0.583849 0.099324 -0.805764
vn 0.306278 0.099324 -0.946746
vn 0.804268 0.099324 -0.585908
vn 0.945960 0.099324 -0.308698
vn 0.995054 0.099324 -0.001272
vn 0.946746 0.099324 0.306278
vn 0.805764 0.099324 0.583849
vn 0.585908 0.099324 0.804268
vn 0.308699 0.099324 0.945960
vn 0.001273 0.099324 0.995054
vn -0.306278 0.099324 0.946746
vn -0.583848 0.099324 0.805764
vn -0.804268 0.099324 0.585908
vn -0.945960 0.099324 0.308699
vn -0.995054 0.099324 0.001273
vn -0.946746 0.099324 -0.306278
vn -0.805764 0.099324 -0.583849
vn -0.585908 0.099324 -0.804268
vn -0.308699 0.099324 -0.945960
vn -0.001273 0.099324 -0.995054
vn 0.587785 0.000000 -0.809017
vn 0.309017 0.000000 -0.951057
vn 0.809017 0.000000 -0.587785
vn 0.951057 0.000000 -0.309016
vn 1.000000 0.000000 0.000001
vn 0.951057 0.000000 0.309017
vn 0.809017 0.000000 0.587785
vn 0.587785 0.000000 0.809017
vn 0.309017 0.000000 0.951056
vn 0.000000 0.000000 1.000000
vn -0.309017 0.000000 0.951057
vn -0.587785 0.000000 0.809017
vn -0.809017 0.000000 0.587785
vn -0.951057 0.000000 0.309017
vn -1.000000 0.000000 0.000000
vn -0.951057 0.000000 -0.309017
vn -0.809017 0.000000 -0.587785
vn -0.587786 0.000000 -0.809017
vn -0.309017 0.000000 -0.951056
vn 0.000000 0.000000 -1.000000
s 1
g pCylinder1
usemtl blinn1SG
f 1/21/1 2/22/2 106/132/3
f 106/132/3 2/22/2 105/130/4
f 2/22/2 3/23/5 105/130/4
f 105/130/4 3/23/5 104/129/6
f 3/23/5 4/24/7 104/129/6
f 104/129/6 4/24/7 103/128/8
f 4/24/7 5/25/9 103/128/8
f 103/128/8 5/25/9 122/148/10
f 5/25/9 6/26/11 122/148/10
f 122/148/10 6/26/11 121/147/12
f 6/26/11 7/27/13 121/147/12
f 121/147/12 7/27/13 120/146/14
f 7/27/13 8/28/15 120/146/14
f 120/146/14 8/28/15 119/145/16
f 8/28/15 9/29/17 119/145/16
f 119/145/16 9/29/17 118/144/18
f 9/29/17 10/30/19 118/144/18
f 118/144/18 10/30/19 117/143/20
f 10/30/19 11/31/21 117/143/20
f 117/143/20 11/31/21 116/142/22
f 11/31/21 12/32/23 116/142/22
f 116/142/22 12/32/23 115/141/24
f 12/32/23 13/33/25 115/141/24
f 115/141/24 13/33/25 114/140/26
f 13/33/25 14/34/27 114/140/26
f 114/140/26 14/34/27 113/139/28
f 14/34/27 15/35/29 113/139/28
f 113/139/28 15/35/29 112/138/30
f 15/35/29 16/36/31 112/138/30
f 112/138/30 16/36/31 111/137/32
f 16/36/31 17/37/33 111/137/32
f 111/137/32 17/37/33 110/136/34
f 17/37/33 18/38/35 110/136/34
f 110/136/34 18/38/35 109/135/36
f 18/38/35 19/39/37 109/135/36
f 109/135/36 19/39/37 108/134/38
f 19/39/37 20/40/39 108/134/38
f 108/134/38 20/40/39 107/133/40
f 20/40/39 1/41/1 107/133/40
f 107/133/40 1/41/1 106/131/3
s 2
f 2/2/41 1/1/42 22/43/43
f 3/3/44 2/2/41 22/43/43
f 4/4/45 3/3/44 22/43/43
f 5/5/46 4/4/45 22/43/43
f 6/6/47 5/5/46 22/43/43
f 7/7/48 6/6/47 22/43/43
f 8/8/49 7/7/48 22/43/43
f 9/9/50 8/8/49 22/43/43
f 10/10/51 9/9/50 22/43/43
f 11/11/52 10/10/51 22/43/43
f 12/12/53 11/11/52 22/43/43
f 13/13/54 12/12/53 22/43/43
f 14/14/55 13/13/54 22/43/43
f 15/15/56 14/14/55 22/43/43
f 16/16/57 15/15/56 22/43/43
f 17/17/58 16/16/57 22/43/43
f 18/18/59 17/17/58 22/43/43
f 19/19/60 18/18/59 22/43/43
f 20/20/61 19/19/60 22/43/43
f 1/1/42 20/20/61 22/43/43
s 1
f 24/45/62 23/44/63 21/42/64
f 25/46/65 24/45/62 21/42/64
f 26/48/66 25/46/65 21/42/64
f 27/49/67 26/47/66 21/42/64
f 28/50/68 27/49/67 21/42/64
f 29/51/69 28/50/68 21/42/64
f 30/52/70 29/51/69 21/42/64
f 31/53/71 30/52/70 21/42/64
f 32/54/72 31/53/71 21/42/64
f 33/55/73 32/54/72 21/42/64
f 34/56/74 33/55/73 21/42/64
f 35/57/75 34/56/74 21/42/64
f 36/58/76 35/57/75 21/42/64
f 37/59/77 36/58/76 21/42/64
f 38/60/78 37/59/77 21/42/64
f 39/61/79 38/60/78 21/42/64
f 40/62/80 39/61/79 21/42/64
f 41/63/81 40/62/80 21/42/64
f 42/64/82 41/63/81 21/42/64
f 23/44/63 42/64/82 21/42/64
f 44/66/83 43/65/84 24/45/62
f 24/45/62 43/65/84 23/44/63
f 45/67/85 44/66/83 25/46/65
f 25/46/65 44/66/83 24/45/62
f 46/69/86 45/67/85 26/48/66
f 26/48/66 45/67/85 25/46/65
f 47/70/87 46/68/86 27/49/67
f 27/49/67 46/68/86 26/47/66
f 48/71/88 47/70/87 28/50/68
f 28/50/68 47/70/87 27/49/67
f 49/72/89 48/71/88 29/51/69
f 29/51/69 48/71/88 28/50/68
f 50/73/90 49/72/89 30/52/70
f 30/52/70 49/72/89 29/51/69
f 51/74/91 50/73/90 31/53/71
f 31/53/71 50/73/90 30/52/70
f 52/75/92 51/74/91 32/54/72
f 32/54/72 51/74/91 31/53/71
f 53/76/93 52/75/92 33/55/73
f 33/55/73 52/75/92 32/54/72
f 54/77/94 53/76/93 34/56/74
f 34/56/74 53/76/93 33/55/73
f 55/78/95 54/77/94 35/57/75
f 35/57/75 54/77/94 34/56/74
f 56/79/96 55/78/95 36/58/76
f 36/58/76 55/78/95 35/57/75
f 57/80/97 56/79/96 37/59/77
f 37/59/77 56/79/96 36/58/76
f 58/81/98 57/80/97 38/60/78
f 38/60/78 57/80/97 37/59/77
f 59/82/99 58/81/98 39/61/79
f 39/61/79 58/81/98 38/60/78
f 60/83/100 59/82/99 40/62/80
f 40/62/80 59/82/99 39/61/79
f 61/84/101 60/83/100 41/63/81
f 41/63/81 60/83/100 40/62/80
f 62/85/102 61/84/101 42/64/82
f 42/64/82 61/84/101 41/63/81
f 43/65/84 62/85/102 23/44/63
f 23/44/63 62/85/102 42/64/82
f 64/87/103 63/86/104 44/66/83
f 44/66/83 63/86/104 43/65/84
f 65/88/105 64/87/103 45/67/85
f 45/67/85 64/87/103 44/66/83
f 66/90/106 65/88/105 46/69/86
f 46/69/86 65/88/105 45/67/85
f 67/91/107 66/89/106 47/70/87
f 47/70/87 66/89/106 46/68/86
f 68/92/108 67/91/107 48/71/88
f 48/71/88 67/91/107 47/70/87
f 69/93/109 68/92/108 49/72/89
f 49/72/89 68/92/108 48/71/88
f 70/94/110 69/93/109 50/73/90
f 50/73/90 69/93/109 49/72/89
f 71/95/111 70/94/110 51/74/91
f 51/74/91 70/94/110 50/73/90
f 72/96/112 71/95/111 52/75/92
f 52/75/92 71/95/111 51/74/91
f 73/97/113 72/96/112 53/76/93
f 53/76/93 72/96/112 52/75/92
f 74/98/114 73/97/113 54/77/94
f 54/77/94 73/97/113 53/76/93
f 75/99/115 74/98/114 55/78/95
f 55/78/95 74/98/114 54/77/94
f 76/100/116 75/99/115 56/79/96
f 56/79/96 75/99/115 55/78/95
f 77/101/117 76/100/116 57/80/97
f 57/80/97 76/100/116 56/79/96
f 78/102/118 77/101/117 58/81/98
f 58/81/98 77/101/117 57/80/97
f 79/103/119 78/102/118 59/82/99
f 59/82/99 78/102/118 58/81/98
f 80/104/120 79/103/119 60/83/100
f 60/83/100 79/103/119 59/82/99
f 81/105/121 80/104/120 61/84/101
f 61/84/101 80/104/120 60/83/100
f 82/106/122 81/105/121 62/85/102
f 62/85/102 81/105/121 61/84/101
f 63/86/104 82/106/122 43/65/84
f 43/65/84 82/106/122 62/85/102
f 84/108/123 83/107/124 64/87/103
f 64/87/103 83/107/124 63/86/104
f 85/109/125 84/108/123 65/88/105
f 65/88/105 84/108/123 64/87/103
f 86/111/126 85/109/125 66/90/106
f 66/90/106 85/109/125 65/88/105
f 87/112/127 86/110/126 67/91/107
f 67/91/107 86/110/126 66/89/106
f 88/113/128 87/112/127 68/92/108
f 68/92/108 87/112/127 67/91/107
f 89/114/129 88/113/128 69/93/109
f 69/93/109 88/113/128 68/92/108
f 90/115/130 89/114/129 70/94/110
f 70/94/110 89/114/129 69/93/109
f 91/116/131 90/115/130 71/95/111
f 71/95/111 90/115/130 70/94/110
f 92/117/132 91/116/131 72/96/112
f 72/96/112 91/116/131 71/95/111
f 93/118/133 92/117/132 73/97/113
f 73/97/113 92/117/132 72/96/112
f 94/119/134 93/118/133 74/98/114
f 74/98/114 93/118/133 73/97/113
f 95/120/135 94/119/134 75/99/115
f 75/99/115 94/119/134 74/98/114
f 96/121/136 95/120/135 76/100/116
f 76/100/116 95/120/135 75/99/115
f 97/122/137 96/121/136 77/101/117
f 77/101/117 96/121/136 76/100/116
f 98/123/138 97/122/137 78/102/118
f 78/102/118 97/122/137 77/101/117
f 99/124/139 98/123/138 79/103/119
f 79/103/119 98/123/138 78/102/118
f 100/125/140 99/124/139 80/104/120
f 80/104/120 99/124/139 79/103/119
f 101/126/141 100/125/140 81/105/121
f 81/105/121 100/125/140 80/104/120
f 102/127/142 101/126/141 82/106/122
f 82/106/122 101/126/141 81/105/121
f 83/107/124 102/127/142 63/86/104
f 63/86/104 102/127/142 82/106/122
f 104/129/6 103/128/8 84/108/123
f 84/108/123 103/128/8 83/107/124
f 105/130/4 104/129/6 85/109/125
f 85/109/125 104/129/6 84/108/123
f 106/132/3 105/130/4 86/111/126
f 86/111/126 105/130/4 85/109/125
f 107/133/40 106/131/3 87/112/127
f 87/112/127 106/131/3 86/110/126
f 108/134/38 107/133/40 88/113/128
f 88/113/128 107/133/40 87/112/127
f 109/135/36 108/134/38 89/114/129
f 89/114/129 108/134/38 88/113/128
f 110/136/34 109/135/36 90/115/130
f 90/115/130 109/135/36 89/114/129
f 111/137/32 110/136/34 91/116/131
f 91/116/131 110/136/34 90/115/130
f 112/138/30 111/137/32 92/117/132
f 92/117/132 111/137/32 91/116/131
f 113/139/28 112/138/30 93/118/133
f 93/118/133 112/138/30 92/117/132
f 114/140/26 113/139/28 94/119/134
f 94/119/134 113/139/28 93/118/133
f 115/141/24 114/140/26 95/120/135
f 95/120/135 114/140/26 94/119/134
f 116/142/22 115/141/24 96/121/136
f 96/121/136 115/141/24 95/120/135
f 117/143/20 116/142/22 97/122/137
f 97/122/137 116/142/22 96/121/136
f 118/144/18 117/143/20 98/123/138
f 98/123/138 117/143/20 97/122/137
f 119/145/16 118/144/18 99/124/139
f 99/124/139 118/144/18 98/123/138
f 120/146/14 119/145/16 100/125/140
f 100/125/140 119/145/16 99/124/139
f 121/147/12 120/146/14 101/126/141
f 101/126/141 120/146/14 100/125/140
f 122/148/10 121/147/12 102/127/142
f 102/127/142 121/147/12 101/126/141
f 103/128/8 122/148/10 83/107/124
f 83/107/124 122/148/10 102/127/142
