# This file uses centimeters as units for non-parametric coordinates.

mtllib plain.mtl
g default
v -4.203420 -0.000000 3.633496
v 4.203420 -0.000000 3.633496
v -4.203420 0.000000 -3.633496
v 4.203420 0.000000 -3.633496
vt 0.000000 0.000000
vt 1.000000 0.000000
vt 0.000000 0.864414
vt 1.000000 0.864414
vn 0.000000 1.000000 0.000000
vn 0.000000 1.000000 0.000000
vn 0.000000 1.000000 0.000000
vn 0.000000 1.000000 0.000000
s 1
g pPlane1
usemtl initialShadingGroup
f 1/1/1 2/2/2 3/3/3
f 3/3/3 2/2/2 4/4/4
